PathFileType	4	(X/Y/Z)	jw_ngait_og1_rotated.trc
DataRate	CameraRate	NumFrames	NumMarkers	Units	OrigDataRate	OrigDataStartFrame	OrigNumFrames
120.000000	120.000000	5	56	mm	120.000000	164	327
Frame#	Times	Sternum			Neck			RShoulder			LShoulder			Xiphoid			Thoracic			RAsis			LAsis			RPsis			LPsis			Lumbar			RElbow			RWrist			RRadius			RUlna			LElbow			LWrist			LUlna			LRadius			LThighSuperior			LThighInferior			LThighLateral			LPatella			LShankSuperior			LShankInferior			LShankLateral			RThighSuperior			RThighInferior			RThighLateral			RPatella			RShankSuperior			RShankInferior			RShankLateral			RHeel			RToe			RMidfootMedial			RMidfootLateral			RHindfoot			RMidfootSuperior			RToeMedial			RToeLateral			LHeel			LToe			LMidfootMedial			LMidfootLateral			LHindfoot			LMidfootSuperior			LToeMedial			LToeLateral			LShoulderCenter			Oglobal			RShoulderCenter			Sacral			Xglobal			Yglobal			Zglobal			
		X1	Y1	Z1	X2	Y2	Z2	X3	Y3	Z3	X4	Y4	Z4	X5	Y5	Z5	X6	Y6	Z6	X7	Y7	Z7	X8	Y8	Z8	X9	Y9	Z9	X10	Y10	Z10	X11	Y11	Z11	X12	Y12	Z12	X13	Y13	Z13	X14	Y14	Z14	X15	Y15	Z15	X16	Y16	Z16	X17	Y17	Z17	X18	Y18	Z18	X19	Y19	Z19	X20	Y20	Z20	X21	Y21	Z21	X22	Y22	Z22	X23	Y23	Z23	X24	Y24	Z24	X25	Y25	Z25	X26	Y26	Z26	X27	Y27	Z27	X28	Y28	Z28	X29	Y29	Z29	X30	Y30	Z30	X31	Y31	Z31	X32	Y32	Z32	X33	Y33	Z33	X34	Y34	Z34	X35	Y35	Z35	X36	Y36	Z36	X37	Y37	Z37	X38	Y38	Z38	X39	Y39	Z39	X40	Y40	Z40	X41	Y41	Z41	X42	Y42	Z42	X43	Y43	Z43	X44	Y44	Z44	X45	Y45	Z45	X46	Y46	Z46	X47	Y47	Z47	X48	Y48	Z48	X49	Y49	Z49	X50	Y50	Z50	X51	Y51	Z51	X52	Y52	Z52	X53	Y53	Z53	X54	Y54	Z54	X55	Y55	Z55	X56	Y56	Z56	

164	2.3167	-45.573	1306.6	-123.56	86.006	1424.1	-128.07	20.478	1372.7	-305.55	43.011	1362.8	58.634	-41.061	1190.2	-120.44	178.83	1233.9	-135.43	-38.519	967.29	-264.38	0.67636	948.92	5.0159	188.51	946.67	-170.12	196.65	943.87	-111.01	187.39	1015.3	-149.12	94.481	1051.1	-413.03	-10.983	805.76	-408.84	-27.022	813.78	-373.45	36.748	799.98	-405.14	127.18	1038.9	107.92	100.58	765.81	105.7	150.27	772.7	100.26	81.923	788.26	71.782	5.8143	785.67	49.111	-119.16	569.81	8.6983	-120.9	693.23	-4.3581	-194.46	522.29	-43.111	-152.28	428.04	0.68839	-191.95	173.4	-29.906	-208.29	306.55	-69.803	48.039	775.17	-307.12	87.517	534.28	-272.65	16.171	616.47	-247.63	91.152	443.72	-229.77	252.38	407.52	-281.82	375.88	209.24	-229.21	278.04	267.1	-196.86	514.86	156.73	-173.73	267.52	29.28	-243.34	329.46	34.804	-174.12	366.92	49.624	-281.72	442.55	74.108	-261.71	343.28	119.47	-219.07	302.16	30.441	-192.24	316.12	35.638	-279.81	-123.61	44.363	-68.15	-417.79	83.92	-41.204	-335.95	53.875	-107.92	-318.82	49.629	15.464	-221.38	23.195	-1.6213	-283.64	123.39	-49.925	-380.62	70.834	-83.463	-366.95	62.93	4.5946	67.633	1320.1	45.853	0	0	0	44.093	1330.4	-305.22	192.58	945.27	-140.56	200	0	0	0	0	-200	0	200	0
165	2.325	-56.06	1307.7	-121.36	75.813	1424.7	-126.95	8.6954	1373.6	-304.14	34.013	1363	59.748	-51.995	1191.2	-118.4	168.19	1234.4	-135.84	-51.035	967.87	-262.02	-9.7963	950.33	6.8951	176.62	946.5	-170.14	185.08	943.75	-111.06	176.04	1015.1	-148.88	82.899	1052	-410.66	-21.39	806.04	-406.83	-37.945	814.09	-371.66	26.562	800.63	-403.08	115.53	1038.5	109.57	86.219	765.82	108.1	136.19	772.37	102.68	67.849	787.89	73.621	-5.05	786.65	50.083	-130.9	571.27	9.4596	-132.24	694.49	-0.56272	-205.4	522.24	-42.07	-162.17	428.32	1.6481	-195.39	173.15	-29.814	-215.31	306.14	-69.106	32.86	774.61	-305.88	68.316	533.12	-273.27	-1.4565	616.44	-247.96	71.49	440.6	-231.64	235.15	408.87	-282.5	364.46	214.72	-229.39	264.65	269.44	-197.42	504.33	168.92	-172.04	266.83	27.942	-243.62	326.1	36.758	-174.07	363.97	53.231	-281.28	438.55	81.733	-260.77	335.53	121.85	-219.29	301.32	30.449	-192.58	315.12	36.092	-279.72	-124.3	45.15	-68.33	-419.68	78.354	-41.124	-336.95	49.985	-107.29	-319.24	46.647	16.046	-221.82	22.86	-1.6086	-285.89	120.85	-49.803	-382.22	66.222	-83.507	-368.36	58.832	4.6787	58.51	1320.6	47.189	0	0	0	32.284	1331.5	-303.67	180.85	945.13	-140.6	200	0	0	0	0	-200	0	200	0
166	2.3333	-66.602	1308.9	-119.55	65.642	1425.6	-125.95	-3.1971	1374.8	-302.64	25.291	1363.7	60.906	-62.696	1192.6	-116.4	157.51	1234.9	-136.11	-63.241	968.75	-259.93	-20.435	952.16	8.9881	164.89	946.28	-170.16	173.67	944.05	-111.13	164.82	1015.1	-148.31	71.283	1052.9	-408.56	-31.939	806.36	-404.77	-48.745	814.42	-369.5	15.904	801.2	-400.79	103.85	1038.6	111.29	71.93	766.02	110.29	121.88	772.24	105.06	53.576	788.29	75.646	-16.15	787.99	51.426	-142.85	572.97	10.181	-143.59	695.98	3.0284	-215.64	521.86	-41.045	-171	428.73	2.5594	-198.98	172.9	-29.695	-221.7	305.66	-68.407	18.272	774.5	-304.94	48.353	531.86	-273.46	-19.548	616.7	-247.93	50.602	438.09	-232.16	216.57	410.24	-282.67	351.87	220.66	-229.58	250.26	272.02	-198.14	492.2	181.74	-170.59	265.94	26.735	-244.1	322.32	39.047	-174.97	361.32	56.936	-281.56	433.72	90.217	-259.66	327.81	124.29	-220.68	300.35	30.879	-192.97	313.82	36.757	-279.49	-124.93	45.848	-68.194	-421.23	73.705	-41.269	-337.53	46.864	-107.7	-320.09	44.602	15.693	-221.99	22.438	-1.7683	-288.47	119.23	-50.473	-383.49	62.275	-83.52	-369.43	55.416	4.4979	49.482	1321.3	47.995	0	0	0	20.193	1332.7	-302.61	169.28	945.16	-140.64	200	0	0	0	0	-200	0	200	0
167	2.3417	-76.792	1310.4	-117.6	55.571	1426.6	-125.26	-15.034	1375.8	-301.12	16.494	1364.6	61.861	-73.379	1194	-114.58	147.01	1235.8	-136.24	-74.521	969.44	-257.49	-30.855	954.11	10.616	153.18	946.37	-170.12	162.13	944.26	-111.22	154.18	1015.1	-147.39	59.232	1054	-406.59	-42.527	806.84	-402.45	-59.303	814.88	-367.52	5.632	802.02	-398.58	92.152	1038.9	112.77	57.326	766.67	112.65	107.13	772.22	107.47	39.268	789.14	77.943	-26.92	789.4	53.024	-153.79	574.34	9.9502	-154.52	697.32	6.4925	-224.86	521.58	-40.159	-179.13	428.4	3.0866	-202.15	172.65	-29.588	-227.35	305.01	-67.876	4.0295	774.52	-303.88	27.674	530.68	-273.28	-37.928	617.12	-247.87	29.596	435.81	-232.04	197.11	412.04	-282.74	337.98	226.93	-229.81	234.42	274.83	-198.42	478.8	195.6	-169.69	264.5	25.175	-244.08	318.87	41.873	-175.08	357.82	61.727	-281.33	427.42	99.825	-258.88	318.77	126.85	-221.4	298.66	31.309	-193.12	311.65	37.962	-279.2	-125.41	46.512	-68.361	-422.53	69.632	-41.341	-338.07	43.878	-107.46	-320.37	42.596	15.91	-222.32	22.264	-1.7432	-290.42	117.49	-50.7	-384.4	58.575	-83.488	-370.35	52.434	4.6122	40.752	1322.5	48.953	0	0	0	8.5085	1334	-301.39	157.65	945.32	-140.67	200	0	0	0	0	-200	0	200	0
168	2.35	-87.137	1312	-115.98	45.456	1427.9	-124.45	-26.789	1377.1	-299.76	7.8902	1365.7	62.815	-83.479	1195.4	-112.76	136.36	1236.6	-136.53	-86.092	970.81	-255.44	-41.028	956.02	12.394	141.86	946.65	-170.17	150.79	944.96	-111.21	143.46	1015.5	-146.78	46.975	1055.3	-404.63	-53.049	807.38	-400.45	-69.761	815.16	-365.08	-5.0068	802.89	-396.48	80.605	1039.6	114.22	42.442	767.84	115.17	92.25	772.73	110.01	24.684	790.32	80.47	-37.313	790.88	54.575	-165.17	575.84	10.367	-164.39	698.36	9.9177	-231.11	519.09	-39.792	-186.41	428.12	3.5068	-205.18	172.44	-29.569	-232.42	304.28	-67.622	-10.499	774.41	-302.73	6.5846	529.56	-272.8	-56.644	617.87	-247.42	7.4205	434.44	-231.38	177.02	414.15	-282.63	322.47	232.74	-229.61	217.55	277.5	-198.94	463.16	209.81	-168.98	262.68	23.51	-244.15	314.7	44.997	-174.85	352.69	67.399	-280.94	419.36	110.48	-258.18	308.71	129.64	-221.37	296.53	31.972	-193.27	309.2	40.418	-279.28	-125.91	47.024	-68.472	-423.57	65.574	-41.312	-338.57	40.901	-107.17	-320.64	40.639	16.176	-222.4	21.986	-1.745	-291.96	115.58	-50.94	-385.44	55.344	-83.32	-371.13	49.535	4.6585	31.894	1323.7	49.532	0	0	0	-3.4007	1335.4	-300.51	146.33	945.8	-140.69	200	0	0	0	0	-200	0	200	0
